<svg width="107" height="16" viewBox="0 0 107 16" fill="none" xmlns="http://www.w3.org/2000/svg">
<path d="M6.12106 15.637C5.4144 15.637 4.7544 15.5503 4.14106 15.377C3.52773 15.2036 2.98106 14.9636 2.50106 14.657C2.02106 14.337 1.62106 13.9836 1.30106 13.597C0.994395 13.2103 0.794395 12.8036 0.701062 12.377L3.38106 11.577C3.5544 12.0303 3.86106 12.4236 4.30106 12.757C4.74106 13.077 5.2944 13.2436 5.96106 13.257C6.66773 13.2703 7.24106 13.117 7.68106 12.797C8.1344 12.477 8.36106 12.0636 8.36106 11.557C8.36106 11.117 8.18106 10.7503 7.82106 10.457C7.4744 10.1503 6.9944 9.91697 6.38106 9.75697L4.56106 9.27697C3.88106 9.10364 3.28106 8.84364 2.76106 8.49697C2.24106 8.13697 1.8344 7.69697 1.54106 7.17697C1.24773 6.65697 1.10106 6.05031 1.10106 5.35697C1.10106 4.03697 1.5344 3.01031 2.40106 2.27697C3.28106 1.53031 4.52106 1.15697 6.12106 1.15697C7.0144 1.15697 7.7944 1.29031 8.46106 1.55697C9.14106 1.81031 9.70773 2.17697 10.1611 2.65697C10.6144 3.13697 10.9611 3.70364 11.2011 4.35697L8.54106 5.17697C8.38106 4.72364 8.08773 4.33697 7.66106 4.01697C7.2344 3.69697 6.6944 3.53697 6.04106 3.53697C5.3744 3.53697 4.84773 3.6903 4.46106 3.99697C4.08773 4.30364 3.90106 4.73697 3.90106 5.29697C3.90106 5.73697 4.04773 6.08364 4.34106 6.33697C4.64773 6.59031 5.06106 6.78364 5.58106 6.91697L7.42106 7.37697C8.62106 7.67031 9.5544 8.19697 10.2211 8.95697C10.8877 9.71697 11.2211 10.5636 11.2211 11.497C11.2211 12.3236 11.0211 13.0503 10.6211 13.677C10.2211 14.2903 9.64106 14.7703 8.88106 15.117C8.12106 15.4636 7.20106 15.637 6.12106 15.637ZM18.0095 15.637C16.9695 15.637 16.0428 15.417 15.2295 14.977C14.4162 14.5236 13.7828 13.9036 13.3295 13.117C12.8762 12.317 12.6495 11.4103 12.6495 10.397C12.6495 9.37031 12.8762 8.46364 13.3295 7.67697C13.7828 6.89031 14.4095 6.27697 15.2095 5.83697C16.0095 5.38364 16.9295 5.15697 17.9695 5.15697C18.9695 5.15697 19.8828 5.40364 20.7095 5.89697C21.5362 6.39031 22.1362 7.10364 22.5095 8.03697L20.0295 8.91697C19.8428 8.53031 19.5495 8.22364 19.1495 7.99697C18.7628 7.75697 18.3295 7.63697 17.8495 7.63697C17.3562 7.63697 16.9228 7.75697 16.5495 7.99697C16.1762 8.22364 15.8828 8.54364 15.6695 8.95697C15.4562 9.37031 15.3495 9.85031 15.3495 10.397C15.3495 10.9436 15.4562 11.4236 15.6695 11.837C15.8828 12.237 16.1828 12.557 16.5695 12.797C16.9562 13.037 17.3962 13.157 17.8895 13.157C18.3695 13.157 18.8028 13.0303 19.1895 12.777C19.5895 12.5236 19.8828 12.1903 20.0695 11.777L22.5695 12.657C22.1828 13.6036 21.5762 14.337 20.7495 14.857C19.9362 15.377 19.0228 15.637 18.0095 15.637ZM30.1475 15.397L30.0675 13.377V10.337C30.0675 9.73697 30.0008 9.22364 29.8675 8.79697C29.7475 8.37031 29.5475 8.04364 29.2675 7.81697C29.0008 7.57697 28.6341 7.45697 28.1675 7.45697C27.7408 7.45697 27.3541 7.55031 27.0075 7.73697C26.6608 7.92364 26.3675 8.21031 26.1275 8.59697L23.8075 7.79697C23.9941 7.37031 24.2675 6.95697 24.6275 6.55697C24.9875 6.14364 25.4541 5.81031 26.0275 5.55697C26.6141 5.29031 27.3275 5.15697 28.1675 5.15697C29.1808 5.15697 30.0208 5.35031 30.6875 5.73697C31.3675 6.12364 31.8675 6.67031 32.1875 7.37697C32.5208 8.07031 32.6808 8.89697 32.6675 9.85697L32.6075 15.397H30.1475ZM27.3475 15.637C26.1475 15.637 25.2141 15.3703 24.5475 14.837C23.8941 14.3036 23.5675 13.5503 23.5675 12.577C23.5675 11.5103 23.9208 10.7103 24.6275 10.177C25.3475 9.63031 26.3541 9.35697 27.6475 9.35697H30.1875V11.317H28.5675C27.7008 11.317 27.1008 11.4236 26.7675 11.637C26.4341 11.837 26.2675 12.1236 26.2675 12.497C26.2675 12.7903 26.4008 13.0236 26.6675 13.197C26.9341 13.357 27.3075 13.437 27.7875 13.437C28.2275 13.437 28.6141 13.337 28.9475 13.137C29.2941 12.9236 29.5675 12.657 29.7675 12.337C29.9675 12.0036 30.0675 11.6636 30.0675 11.317H30.7075C30.7075 12.677 30.4475 13.737 29.9275 14.497C29.4208 15.257 28.5608 15.637 27.3475 15.637ZM34.7715 15.397V5.39697H37.2515L37.4115 7.23697V15.397H34.7715ZM41.3915 15.397V10.277H44.0315V15.397H41.3915ZM41.3915 10.277C41.3915 9.59697 41.3115 9.07031 41.1515 8.69697C41.0049 8.32364 40.7915 8.05697 40.5115 7.89697C40.2315 7.72364 39.9049 7.63697 39.5315 7.63697C38.8515 7.62364 38.3249 7.83031 37.9515 8.25697C37.5915 8.68364 37.4115 9.31697 37.4115 10.157H36.5315C36.5315 9.09031 36.6849 8.19031 36.9915 7.45697C37.3115 6.71031 37.7515 6.14364 38.3115 5.75697C38.8849 5.35697 39.5515 5.15697 40.3115 5.15697C41.0982 5.15697 41.7715 5.31697 42.3315 5.63697C42.8915 5.95697 43.3182 6.45697 43.6115 7.13697C43.9049 7.80364 44.0449 8.67031 44.0315 9.73697V10.277H41.3915ZM46.1387 15.397V5.39697H48.6187L48.7787 7.23697V15.397H46.1387ZM52.7587 15.397V10.277H55.3987V15.397H52.7587ZM52.7587 10.277C52.7587 9.59697 52.6787 9.07031 52.5187 8.69697C52.3721 8.32364 52.1587 8.05697 51.8787 7.89697C51.5987 7.72364 51.2721 7.63697 50.8987 7.63697C50.2187 7.62364 49.6921 7.83031 49.3187 8.25697C48.9587 8.68364 48.7787 9.31697 48.7787 10.157H47.8987C47.8987 9.09031 48.0521 8.19031 48.3587 7.45697C48.6787 6.71031 49.1187 6.14364 49.6787 5.75697C50.2521 5.35697 50.9187 5.15697 51.6787 5.15697C52.4654 5.15697 53.1387 5.31697 53.6987 5.63697C54.2587 5.95697 54.6854 6.45697 54.9787 7.13697C55.2721 7.80364 55.4121 8.67031 55.3987 9.73697V10.277H52.7587ZM62.0259 15.637C61.0392 15.637 60.1659 15.417 59.4059 14.977C58.6459 14.5236 58.0459 13.9036 57.6059 13.117C57.1792 12.3303 56.9659 11.4236 56.9659 10.397C56.9659 9.37031 57.1859 8.46364 57.6259 7.67697C58.0792 6.89031 58.6926 6.27697 59.4659 5.83697C60.2526 5.38364 61.1526 5.15697 62.1659 5.15697C63.0459 5.15697 63.8526 5.39031 64.5859 5.85697C65.3326 6.31031 65.9259 6.98364 66.3659 7.87697C66.8192 8.75697 67.0459 9.83031 67.0459 11.097H59.4659L59.7059 10.857C59.7059 11.3503 59.8259 11.7836 60.0659 12.157C60.3192 12.517 60.6392 12.797 61.0259 12.997C61.4259 13.1836 61.8526 13.277 62.3059 13.277C62.8526 13.277 63.2992 13.1636 63.6459 12.937C63.9926 12.697 64.2592 12.3903 64.4459 12.017L66.8059 12.937C66.5259 13.497 66.1592 13.9836 65.7059 14.397C65.2659 14.797 64.7392 15.1036 64.1259 15.317C63.5126 15.5303 62.8126 15.637 62.0259 15.637ZM59.8459 9.37697L59.6059 9.13697H64.4259L64.2059 9.37697C64.2059 8.89697 64.0926 8.51697 63.8659 8.23697C63.6392 7.94364 63.3592 7.73031 63.0259 7.59697C62.7059 7.46364 62.3926 7.39697 62.0859 7.39697C61.7792 7.39697 61.4526 7.46364 61.1059 7.59697C60.7592 7.73031 60.4592 7.94364 60.2059 8.23697C59.9659 8.51697 59.8459 8.89697 59.8459 9.37697ZM70.4401 10.137C70.4401 9.05697 70.6468 8.16364 71.0601 7.45697C71.4868 6.75031 72.0268 6.22364 72.6801 5.87697C73.3468 5.53031 74.0401 5.35697 74.7601 5.35697V7.91697C74.1468 7.91697 73.5668 7.99031 73.0201 8.13697C72.4868 8.28364 72.0535 8.52364 71.7201 8.85697C71.3868 9.19031 71.2201 9.61697 71.2201 10.137H70.4401ZM68.5801 15.397V5.39697H71.2201V15.397H68.5801ZM77.4982 15.697C77.0582 15.697 76.6782 15.537 76.3582 15.217C76.0516 14.897 75.8982 14.517 75.8982 14.077C75.8982 13.6503 76.0516 13.277 76.3582 12.957C76.6782 12.637 77.0582 12.477 77.4982 12.477C77.9382 12.477 78.3116 12.637 78.6182 12.957C78.9382 13.277 79.0982 13.6503 79.0982 14.077C79.0982 14.517 78.9382 14.897 78.6182 15.217C78.3116 15.537 77.9382 15.697 77.4982 15.697ZM81.1192 15.397V1.39697H83.7592V13.537L83.6192 15.397H81.1192ZM86.7792 15.637C85.9392 15.637 85.2259 15.4236 84.6392 14.997C84.0659 14.5703 83.6259 13.9636 83.3192 13.177C83.0125 12.3903 82.8592 11.4636 82.8592 10.397C82.8592 9.31697 83.0125 8.39031 83.3192 7.61697C83.6259 6.83031 84.0659 6.22364 84.6392 5.79697C85.2259 5.37031 85.9392 5.15697 86.7792 5.15697C87.6992 5.15697 88.4925 5.37031 89.1592 5.79697C89.8392 6.22364 90.3659 6.83031 90.7392 7.61697C91.1125 8.39031 91.2992 9.31697 91.2992 10.397C91.2992 11.4636 91.1125 12.3903 90.7392 13.177C90.3659 13.9636 89.8392 14.5703 89.1592 14.997C88.4925 15.4236 87.6992 15.637 86.7792 15.637ZM86.0992 13.217C86.5792 13.217 86.9992 13.097 87.3592 12.857C87.7325 12.617 88.0259 12.2836 88.2392 11.857C88.4525 11.4303 88.5592 10.9436 88.5592 10.397C88.5592 9.85031 88.4525 9.36364 88.2392 8.93697C88.0392 8.51031 87.7525 8.18364 87.3792 7.95697C87.0192 7.71697 86.5992 7.59697 86.1192 7.59697C85.6659 7.59697 85.2592 7.71697 84.8992 7.95697C84.5392 8.19697 84.2592 8.53031 84.0592 8.95697C83.8592 9.37031 83.7592 9.85031 83.7592 10.397C83.7592 10.9436 83.8592 11.4303 84.0592 11.857C84.2592 12.2836 84.5325 12.617 84.8792 12.857C85.2392 13.097 85.6459 13.217 86.0992 13.217ZM93.1932 15.397V5.39697H95.8332V15.397H93.1932ZM94.5132 3.77697C94.1132 3.77697 93.7599 3.63031 93.4532 3.33697C93.1466 3.03031 92.9932 2.67031 92.9932 2.25697C92.9932 1.84364 93.1466 1.49031 93.4532 1.19697C93.7599 0.890305 94.1132 0.736972 94.5132 0.736972C94.9266 0.736972 95.2799 0.890305 95.5732 1.19697C95.8799 1.49031 96.0332 1.84364 96.0332 2.25697C96.0332 2.67031 95.8799 3.03031 95.5732 3.33697C95.2799 3.63031 94.9266 3.77697 94.5132 3.77697ZM97.7676 15.397V13.477L102.708 7.57697H97.7676V5.39697H106.008V7.29697L101.068 13.237H106.028V15.397H97.7676Z" fill="#272727"/>
</svg>
