<svg width="134" height="134" viewBox="0 0 134 134" fill="none" xmlns="http://www.w3.org/2000/svg">
<path d="M105.032 103.412L105.478 104.307L106.373 103.861L129.286 92.4509C132.483 90.8587 133.783 86.9794 132.191 83.7821L92.9318 4.94601C91.3396 1.74873 87.4603 0.448669 84.2631 2.04085L5.42694 41.2997C2.22966 42.8919 0.929591 46.7712 2.52178 49.9685L41.7807 128.805C43.3728 132.002 47.2521 133.302 50.4494 131.71L92.5571 110.741L93.4522 110.295L93.0065 109.4L75.9168 75.082L75.471 74.1869L74.5758 74.6327L63.9194 79.9394L58.1516 68.357L68.8125 63.048L69.7076 62.6023L69.2618 61.7071L64.3479 51.8393C61.5902 46.3017 61.1993 41.2908 62.6297 37.101C64.0614 32.9072 67.3683 29.3884 72.291 26.937L72.2947 26.9351C75.4357 25.3548 78.6555 23.9365 81.9413 22.6857L87.051 32.9466L80.8654 36.0269C77.9679 37.4698 76.3319 39.1425 75.8377 41.1801C75.3554 43.1688 76.0431 45.2097 77.0265 47.1845L81.2785 55.7231L81.7243 56.6182L82.6194 56.1724L94.8501 50.0818L99.1251 62.4076L88.3917 67.7527L87.4965 68.1984L87.9423 69.0936L105.032 103.412Z" fill="#C5FFF1" stroke="black" stroke-width="2"/>
</svg>
