<svg width="127" height="126" viewBox="0 0 127 126" fill="none" xmlns="http://www.w3.org/2000/svg">
<path d="M42.7829 58.7189L42.9575 59.2345L38.0439 60.8979L37.0967 61.2185L37.4173 62.1657L40.3933 70.9569L40.714 71.9041L41.6612 71.5835L46.5748 69.9201L50.8935 82.6777L45.9799 84.341L45.0327 84.6617L45.3534 85.6089L48.3294 94.4001L48.65 95.3473L49.5972 95.0266L70.11 88.0826L71.0572 87.7619L70.7365 86.8147L67.7605 78.0236L67.4399 77.0764L66.4927 77.397L61.5791 79.0604L57.2603 66.3028L70.1023 61.9555L74.4211 74.7131L69.4231 76.405L68.4759 76.7256L68.7965 77.6728L71.7725 86.464L72.0932 87.4112L73.0404 87.0906L93.5531 80.1465L94.5003 79.8259L94.1797 78.8787L91.2037 70.0875L90.883 69.1403L89.9358 69.461L85.0222 71.1243L77.4068 48.6284L77.0862 47.6812L76.139 48.0018L53.643 55.6172L53.4685 55.1016C52.8248 53.2 53.8461 51.1275 55.7511 50.4827L60.1443 48.9954L61.0915 48.6748L60.7709 47.7276L57.7948 38.9364L57.4742 37.9892L56.527 38.3099L52.1337 39.7971L52.1327 39.7974C48.3864 41.0701 45.2979 43.777 43.545 47.3241C41.7921 50.8712 41.5179 54.9688 42.7826 58.7179L42.7829 58.7189Z" fill="#97FF9E" stroke="black" stroke-width="2"/>
<path d="M70.1078 46.0091C73.223 44.9545 74.8935 41.5743 73.8389 38.4591C72.7843 35.3439 69.4041 33.6735 66.2889 34.728C63.1738 35.7826 61.5033 39.1628 62.5579 42.278C63.6124 45.3932 66.9927 47.0636 70.1078 46.0091Z" fill="#97FF9E" stroke="black" stroke-width="2"/>
<path d="M17.6972 40.5201C18.743 38.404 20.5866 36.79 22.8223 36.0331L79.0859 16.9866C81.3217 16.2297 83.7666 16.392 85.8827 17.4378C87.9989 18.4835 89.6129 20.3271 90.3698 22.5629L109.416 78.8265C110.173 81.0623 110.011 83.5071 108.965 85.6233C107.919 87.7394 106.076 89.3534 103.84 90.1103L47.5764 109.157C45.3406 109.914 42.8957 109.751 40.7796 108.706C38.6635 107.66 37.0494 105.816 36.2926 103.581L17.2461 47.317C16.4892 45.0812 16.6515 42.6363 17.6972 40.5201ZM75.2702 5.71494L19.0066 24.7615C13.7814 26.5303 9.47287 30.3024 7.02886 35.248C4.58484 40.1936 4.20554 45.9074 5.97439 51.1327L25.0209 107.396C26.7898 112.621 30.5619 116.93 35.5075 119.374C40.453 121.818 46.1669 122.197 51.3921 120.428L107.656 101.382C112.881 99.6131 117.189 95.841 119.633 90.8954C122.077 85.9499 122.457 80.236 120.688 75.0108L101.641 18.7472C99.8726 13.522 96.1004 9.21342 91.1549 6.76941C86.2093 4.32539 80.4954 3.94608 75.2702 5.71494Z" fill="#97FF9E" stroke="black" stroke-width="2"/>
</svg>
