<svg width="34" height="32" viewBox="0 0 34 32" fill="none" xmlns="http://www.w3.org/2000/svg">
<path d="M5.13495 9.44466L19.9684 4.75532L30.2756 16.408L28.5472 16.9545L28.2885 17.0363L28.2161 17.2978L26.3637 23.986L25.0537 23.6232L26.4971 18.4117L26.7431 17.5238L25.8646 17.8015L15.4424 21.0962L5.13495 9.44466Z" fill="#C5FFF1" stroke="black"/>
<path d="M7.39536 21.0871L8.30344 17.8085L14.2182 24.4951L14.4335 24.7385L14.7434 24.6406L23.2554 21.9498L22.3474 25.2284C21.9521 26.6555 20.6417 27.554 19.0893 27.9637L19.0892 27.9638C17.5198 28.3783 15.5666 28.3397 13.5879 27.7916C11.6093 27.2436 9.91556 26.2722 8.78185 25.1088C7.66149 23.9589 7.00008 22.5142 7.39536 21.0871Z" fill="#C5FFF1" stroke="black"/>
</svg>
