<svg width="112" height="111" viewBox="0 0 112 111" fill="none" xmlns="http://www.w3.org/2000/svg">
<path d="M9.83053 20.3484L9.83048 20.3488L1.76598 76.3471C0.926109 82.179 2.43735 88.1057 5.96724 92.8234C9.49713 97.541 14.7565 100.663 20.5884 101.503L76.5868 109.568L76.5872 109.568C82.4179 110.405 88.3426 108.892 93.0583 105.363C97.7741 101.833 100.895 96.5744 101.735 90.7439L109.799 34.7456L109.799 34.7452C110.636 28.9159 109.125 22.9927 105.597 18.2774C102.069 13.5622 96.8126 10.4406 90.984 9.59895L90.9836 9.5989L34.9852 1.5344C29.1548 0.69474 23.2296 2.205 18.5124 5.73311C13.7953 9.26121 10.6724 14.5183 9.83053 20.3484ZM92.8637 32.3396C92.6705 33.6812 91.9523 34.891 90.867 35.7031C89.7818 36.5151 88.4184 36.8627 87.0768 36.6695C85.7352 36.4763 84.5254 35.7581 83.7133 34.6728C82.9013 33.5876 82.5537 32.2242 82.7469 30.8826C82.9401 29.541 83.6583 28.3312 84.7436 27.5191C85.8288 26.7071 87.1922 26.3595 88.5338 26.5527C89.8754 26.7459 91.0852 27.4641 91.8973 28.5494C92.7093 29.6346 93.0569 30.998 92.8637 32.3396ZM58.3528 37.7846C53.6417 37.1061 48.8539 38.327 45.0429 41.1785C41.2318 44.0301 38.7096 48.2788 38.0312 52.9899C37.3527 57.7011 38.5735 62.4888 41.4251 66.2999C44.2766 70.1109 48.5253 72.6331 53.2365 73.3116C57.9476 73.9901 62.7354 72.7692 66.5464 69.9177C70.3575 67.0661 72.8797 62.8174 73.5581 58.1063C74.2366 53.3951 73.0158 48.6074 70.1642 44.7963C67.3127 40.9853 63.064 38.4631 58.3528 37.7846ZM31.9384 52.1125C32.8493 45.7876 36.2354 40.0835 41.3519 36.2552C46.4684 32.4269 52.8961 30.7879 59.221 31.6987C65.546 32.6096 71.25 35.9958 75.0783 41.1122C78.9066 46.2287 80.5457 52.6565 79.6348 58.9814C78.7239 65.3063 75.3378 71.0104 70.2213 74.8387C65.1048 78.667 58.6771 80.306 52.3521 79.3951C46.0272 78.4843 40.3232 75.0981 36.4948 69.9816C32.6665 64.8652 31.0275 58.4374 31.9384 52.1125Z" fill="#E2BEFF" stroke="black" stroke-width="2"/>
</svg>
