<svg width="131" height="130" viewBox="0 0 131 130" fill="none" xmlns="http://www.w3.org/2000/svg">
<path d="M93.7084 86.3447L81.1245 111.525L69.1872 105.56L80.8613 82.1995C81.8928 80.1355 82.0621 77.7463 81.332 75.5574C80.6019 73.3686 79.0322 71.5595 76.9682 70.528C72.6775 68.3838 67.4818 70.1718 65.3459 74.4458L53.6717 97.8061L41.7344 91.8405L61.4193 52.4504L73.3567 58.416L71.0746 62.9825L69.4952 66.1429L72.4966 64.2791C76.4721 61.8104 82.2517 61.693 86.1324 63.6323C90.1489 65.6395 93.2035 69.1601 94.6243 73.4195C96.0451 77.6789 95.7156 82.3282 93.7084 86.3447ZM128.607 43.8812C127.6 40.8621 125.435 38.3667 122.588 36.944L53.7102 2.5228C50.8633 1.10009 47.5678 0.866568 44.5488 1.87362C41.5297 2.88067 39.0343 5.04579 37.6116 7.89268L3.19039 76.7707C1.76768 79.6176 1.53415 82.913 2.5412 85.9321C3.54825 88.9512 5.71338 91.4466 8.56027 92.8693L77.4383 127.29C80.2852 128.713 83.5806 128.947 86.5997 127.94C89.6188 126.933 92.1141 124.768 93.5369 121.921L127.958 53.0426C129.381 50.1957 129.614 46.9003 128.607 43.8812ZM55.5802 34.9453C53.5071 35.6368 51.2443 35.4764 49.2894 34.4995C45.201 32.4564 43.5166 27.4951 45.5529 23.4205C46.5363 21.4526 48.2612 19.956 50.3482 19.2599C52.4351 18.5637 54.7131 18.7252 56.681 19.7086C60.7556 21.7448 62.3869 26.7238 60.3437 30.8122C59.3668 32.767 57.6533 34.2538 55.5802 34.9453ZM38.6404 41.0668L50.4793 46.9832L30.7944 86.3734L18.9554 80.4569L38.6404 41.0668Z" fill="#FFDFB2" stroke="black" stroke-width="2"/>
</svg>
