<svg width="29" height="31" viewBox="0 0 29 31" fill="none" xmlns="http://www.w3.org/2000/svg">
<path d="M21.313 8.12498L21.3131 8.12539C21.4733 9.12635 21.5259 9.32976 21.6239 9.48237L20.7824 10.0227L21.6239 9.48237C21.7168 9.627 21.8635 9.74627 22.6926 10.2797L22.6932 10.2801L23.3783 10.7215L22.8404 11.5565L23.3784 10.7215L23.4529 10.7696C24.7153 11.5829 25.7614 12.2568 26.4737 12.8881C27.2154 13.5454 27.8021 14.3358 27.7511 15.4009L27.7511 15.4015C27.7 16.4547 27.0507 17.2002 26.2594 17.8134C25.4905 18.4093 24.3827 19.0342 23.0366 19.7935L22.9706 19.8307L22.9702 19.831L22.2441 20.2401C21.3733 20.7317 21.1966 20.8525 21.0773 21.009L21.313 8.12498ZM21.313 8.12498L21.1797 7.29414L21.1797 7.29401L21.1657 7.20706C20.92 5.67421 20.7178 4.41293 20.4286 3.49069C20.1336 2.55017 19.6577 1.65874 18.6511 1.29167C17.6446 0.924605 16.7065 1.30036 15.8754 1.83021C15.0604 2.34976 14.0937 3.18475 12.9188 4.19952L12.8522 4.2571L12.8521 4.25718L12.2152 4.80713L12.2149 4.8074C11.4463 5.47162 11.278 5.59197 11.1051 5.64523C10.9385 5.69659 10.7486 5.69321 9.77327 5.56828L9.77292 5.56823L8.96476 5.46501L8.96438 5.46496L8.88615 5.45494C7.3923 5.26352 6.15428 5.10488 5.20011 5.12945C4.20928 5.15495 3.25023 5.38214 2.60407 6.2311C1.96534 7.07028 1.98195 8.05863 2.19277 9.03767C2.39772 9.98943 2.84377 11.1815 3.38578 12.6299L3.41097 12.6972L3.41123 12.6979L3.70307 13.4796L3.70343 13.4806C4.05386 14.4163 4.11009 14.6207 4.10002 14.8156L4.1 14.8156L4.09972 14.8217C4.09062 15.0216 4.01104 15.2309 3.57142 16.15C3.57139 16.15 3.57136 16.1501 3.57133 16.1502L3.20469 16.915L3.20428 16.9158L3.16677 16.9943C2.48881 18.4118 1.93291 19.5742 1.63875 20.5085C1.33859 21.4619 1.21755 22.4579 1.78991 23.3469L1.79013 23.3473C2.37318 24.2522 3.33522 24.5198 4.31369 24.589C5.26177 24.6559 6.50946 24.5538 8.01583 24.4304L8.10003 24.4235L8.10047 24.4235L8.91726 24.357L8.91894 24.3569C9.90616 24.2748 10.0934 24.2818 10.2466 24.3377C10.3998 24.3936 10.5476 24.5087 11.2502 25.207L11.2519 25.2087L11.8347 25.7852L11.8356 25.7861L11.8937 25.8437C12.967 26.9082 13.8562 27.7901 14.6254 28.3494C15.4192 28.9266 16.328 29.3403 17.3571 29.0229C18.3672 28.7113 18.9153 27.8708 19.2989 26.9486C19.675 26.0444 19.9979 24.7971 20.3917 23.2758L20.4135 23.1918L20.4137 23.191M21.313 8.12498L20.4137 23.191M20.4137 23.191L20.6259 22.3683M20.4137 23.191L20.6259 22.3683M20.6259 22.3683C20.8801 21.3855 20.9545 21.1707 21.0772 21.0091L20.6259 22.3683Z" fill="#FFEA32" stroke="black" stroke-width="2"/>
</svg>
