<svg width="118" height="118" viewBox="0 0 118 118" fill="none" xmlns="http://www.w3.org/2000/svg">
<path d="M37.2292 0.848328L108.385 22.0585C114.929 24.0091 118.66 30.9091 116.71 37.4529L95.4994 108.609C93.5488 115.153 86.6489 118.884 80.105 116.933L8.94895 95.7231C2.40513 93.7725 -1.32595 86.8726 0.624632 80.3287L21.8348 9.17264C23.7854 2.62882 30.6854 -1.10225 37.2292 0.848328ZM67.4504 65.7057C72.1875 54.9195 77.3226 52.6224 82.7229 54.2321C88.0808 55.8291 90.9564 61.3442 89.0942 67.5916C87.232 73.8389 81.7849 76.8732 76.4482 75.2824C70.5397 73.5212 68.0002 67.8066 67.4504 65.7057ZM64.4347 55.1681C63.6766 51.368 63.6978 46.578 63.8785 42.1814L50.5579 38.2108L45.6278 54.7504C43.835 60.7648 39.7775 64.3977 34.4196 62.8006C29.0617 61.2036 27.3103 55.8622 29.1031 49.8478L34.0967 33.3272L26.4305 31.042L21.5004 47.5816C20.0611 52.41 20.3215 57.2609 22.2525 61.2262C24.2367 65.3226 27.7342 68.2098 32.3932 69.5986C41.6478 72.3572 50.2216 67.1881 53.2516 57.0229L56.5657 45.9048C56.4478 49.8589 56.6392 57.5715 59.2008 65.0683L48.1382 87.251L55.9315 89.5741L63.5913 73.779C64.2598 74.7853 65.0171 75.7259 65.8356 76.6155C67.9481 79.0438 70.6563 80.8657 73.7018 81.8657L74.4218 82.0804C83.9729 84.9273 93.7575 79.7963 96.7244 69.8429C99.6913 59.8895 94.3106 50.1689 84.7808 47.3282C75.1662 44.4623 67.8912 49.1423 64.4474 55.1257L64.4347 55.1681Z" fill="black"/>
</svg>
