<svg width="154" height="122" viewBox="0 0 154 122" fill="none" xmlns="http://www.w3.org/2000/svg">
<path d="M135.316 10.6395L135.317 10.6404C137.086 13.712 138.838 17.9372 140.666 23.3295C142.558 28.6909 143.985 33.3785 145.049 37.51L146.929 43.1229L146.941 43.1568L146.95 43.1915C150.813 58.2164 152.575 69.6284 152.461 77.3123L152.461 77.3178C152.32 84.2758 149.161 89.594 143.11 93.0715L143.109 93.072C139.995 94.857 134.136 97.0219 125.179 99.7626C125.178 99.763 125.176 99.7634 125.175 99.7638L124.882 98.8076C116.067 101.585 107.937 103.895 100.373 105.84L135.316 10.6395ZM135.316 10.6395C131.836 4.61266 126.504 1.47756 119.526 1.3503L119.52 1.35023C115.618 1.30053 109.076 2.17621 99.9696 3.9701C90.8383 5.76887 79.058 8.5057 64.6421 12.2125L64.6239 12.2171L64.6059 12.2225L53.7962 15.4393C46.2208 17.3875 38.081 19.7001 29.2569 22.4805C20.2997 25.2211 14.441 27.386 11.327 29.171L11.3261 29.1715C5.27482 32.649 2.11634 37.9673 1.97499 44.9252L1.97498 44.9252L1.9749 44.9308C1.86135 52.6146 3.62293 64.0266 7.48626 79.0515L7.49518 79.0862L7.50655 79.1202L9.387 84.7331C10.4505 88.8645 11.8775 93.552 13.7696 98.9131C15.5979 104.306 17.3501 108.531 19.1193 111.603L19.1199 111.604C22.6 117.63 27.9321 120.765 34.9102 120.893L34.9157 120.893C38.8178 120.943 45.3599 120.067 54.4664 118.273C63.5977 116.474 75.3779 113.737 89.7939 110.031L89.8121 110.026L89.8301 110.021L100.64 106.804L135.316 10.6395ZM59.5816 45.5378L97.2123 55.9804L69.2861 83.2796L59.5816 45.5378Z" fill="#FF6E6E" stroke="black" stroke-width="2"/>
</svg>
